0
SECTION
2
HEADER
9
$INSUNITS
70
4
9
$ACADVER
1
AC1014
9
$HANDSEED
5
FFFF
0
ENDSEC
0
SECTION
2
TABLES
0
TABLE
2
VPORT
5
8
100
AcDbSymbolTable
0
ENDTAB
0
TABLE
2
LTYPE
5
5
100
AcDbSymbolTable
0
LTYPE
5
14
100
AcDbSymbolTableRecord
100
AcDbLinetypeTableRecord
2
BYBLOCK
70
0
0
LTYPE
5
15
100
AcDbSymbolTableRecord
100
AcDbLinetypeTableRecord
2
BYLAYER
70
0
0
ENDTAB
0
TABLE
2
LAYER
5
2
100
AcDbSymbolTable
70
2
0
LAYER
5
50
100
AcDbSymbolTableRecord
100
AcDbLayerTableRecord
2
0
70
0
6
CONTINUOUS
0
ENDTAB
0
TABLE
2
STYLE
5
3
100
AcDbSymbolTable
70
1
0
STYLE
5
11
100
AcDbSymbolTableRecord
100
AcDbTextStyleTableRecord
2
STANDARD
70
0
0
ENDTAB
0
TABLE
2
VIEW
5
6
100
AcDbSymbolTable
70
0
0
ENDTAB
0
TABLE
2
UCS
5
7
100
AcDbSymbolTable
70
0
0
ENDTAB
0
TABLE
2
APPID
5
9
100
AcDbSymbolTable
70
2
0
APPID
5
12
100
AcDbSymbolTableRecord
100
AcDbRegAppTableRecord
2
ACAD
70
0
0
ENDTAB
0
TABLE
2
DIMSTYLE
5
A
100
AcDbSymbolTable
70
1
0
ENDTAB
0
TABLE
2
BLOCK_RECORD
5
1
100
AcDbSymbolTable
70
1
0
BLOCK_RECORD
5
1F
100
AcDbSymbolTableRecord
100
AcDbBlockTableRecord
2
*MODEL_SPACE
0
BLOCK_RECORD
5
1B
100
AcDbSymbolTableRecord
100
AcDbBlockTableRecord
2
*PAPER_SPACE
0
ENDTAB
0
ENDSEC
0
SECTION
2
BLOCKS
0
BLOCK
5
20
100
AcDbEntity
100
AcDbBlockBegin
2
*MODEL_SPACE
0
ENDBLK
5
21
100
AcDbEntity
100
AcDbBlockEnd
0
BLOCK
5
1C
100
AcDbEntity
100
AcDbBlockBegin
2
*PAPER_SPACE
0
ENDBLK
5
1D
100
AcDbEntity
100
AcDbBlockEnd
0
ENDSEC
0
SECTION
2
ENTITIES
0
LWPOLYLINE
5
100
100
AcDbEntity
8
0
100
AcDbPolyline
90
38
70
1
43
0.0
10
-7.5264837152905937
20
-61
10
-7.5264837152905928
20
-58
10
146.47351628470938
20
-58.000000000000043
10
146.47351628470938
20
-61.000000000000043
10
149.4735162847094
20
-61
10
149.4735162847094
20
0
10
139.4735162847094
20
0
10
139.4735162847094
20
2.9999999999999982
10
129.4735162847094
20
2.9999999999999982
10
129.4735162847094
20
0
10
119.4735162847094
20
0
10
119.4735162847094
20
2.9999999999999982
10
109.4735162847094
20
2.9999999999999982
10
109.4735162847094
20
0
10
99.473516284709405
20
0
10
99.473516284709405
20
2.9999999999999982
10
89.473516284709405
20
2.9999999999999982
10
89.473516284709405
20
0
10
79.473516284709405
20
0
10
79.473516284709405
20
2.9999999999999982
10
69.473516284709405
20
2.9999999999999982
10
69.473516284709405
20
0
10
59.473516284709405
20
0
10
59.473516284709405
20
2.9999999999999982
10
49.473516284709405
20
2.9999999999999982
10
49.473516284709405
20
0
10
39.473516284709405
20
0
10
39.473516284709405
20
2.9999999999999982
10
29.473516284709408
20
2.9999999999999982
10
29.473516284709408
20
0
10
19.473516284709408
20
0
10
19.473516284709408
20
2.9999999999999982
10
9.4735162847094081
20
2.9999999999999982
10
9.4735162847094081
20
0
10
-0.52648371529059101
20
0
10
-0.52648371529059101
20
2.9999999999999982
10
-10.526483715290578
20
2.9999999999999982
10
-10.526483715290578
20
-61
0
LINE
5
101
100
AcDbEntity
8
0
100
AcDbLine
10
-10.526483715290578
20
2.9999999999999982
30
0
11
-10.526483715290578
21
-61
31
0
0
LINE
5
102
100
AcDbEntity
8
0
100
AcDbLine
10
-10.526483715290578
20
-61
30
0
11
-7.5264837152905937
21
-61
31
0
0
LINE
5
103
100
AcDbEntity
8
0
100
AcDbLine
10
-7.5264837152905937
20
-61
30
0
11
-7.5264837152905928
21
-58
31
0
0
LINE
5
104
100
AcDbEntity
8
0
100
AcDbLine
10
-7.5264837152905928
20
-58
30
0
11
146.47351628470938
21
-58.000000000000043
31
0
0
LINE
5
105
100
AcDbEntity
8
0
100
AcDbLine
10
146.47351628470938
20
-58.000000000000043
30
0
11
146.47351628470938
21
-61.000000000000043
31
0
0
LINE
5
106
100
AcDbEntity
8
0
100
AcDbLine
10
146.47351628470938
20
-61.000000000000043
30
0
11
149.4735162847094
21
-61
31
0
0
LINE
5
107
100
AcDbEntity
8
0
100
AcDbLine
10
149.4735162847094
20
-61
30
0
11
149.4735162847094
21
0
31
0
0
LINE
5
108
100
AcDbEntity
8
0
100
AcDbLine
10
149.4735162847094
20
0
30
0
11
139.4735162847094
21
0
31
0
0
LINE
5
109
100
AcDbEntity
8
0
100
AcDbLine
10
139.4735162847094
20
0
30
0
11
139.4735162847094
21
2.9999999999999982
31
0
0
LINE
5
110
100
AcDbEntity
8
0
100
AcDbLine
10
139.4735162847094
20
2.9999999999999982
30
0
11
129.4735162847094
21
2.9999999999999982
31
0
0
LINE
5
111
100
AcDbEntity
8
0
100
AcDbLine
10
129.4735162847094
20
2.9999999999999982
30
0
11
129.4735162847094
21
0
31
0
0
LINE
5
112
100
AcDbEntity
8
0
100
AcDbLine
10
129.4735162847094
20
0
30
0
11
119.4735162847094
21
0
31
0
0
LINE
5
113
100
AcDbEntity
8
0
100
AcDbLine
10
119.4735162847094
20
0
30
0
11
119.4735162847094
21
2.9999999999999982
31
0
0
LINE
5
114
100
AcDbEntity
8
0
100
AcDbLine
10
119.4735162847094
20
2.9999999999999982
30
0
11
109.4735162847094
21
2.9999999999999982
31
0
0
LINE
5
115
100
AcDbEntity
8
0
100
AcDbLine
10
109.4735162847094
20
2.9999999999999982
30
0
11
109.4735162847094
21
0
31
0
0
LINE
5
116
100
AcDbEntity
8
0
100
AcDbLine
10
109.4735162847094
20
0
30
0
11
99.473516284709405
21
0
31
0
0
LINE
5
117
100
AcDbEntity
8
0
100
AcDbLine
10
99.473516284709405
20
0
30
0
11
99.473516284709405
21
2.9999999999999982
31
0
0
LINE
5
118
100
AcDbEntity
8
0
100
AcDbLine
10
99.473516284709405
20
2.9999999999999982
30
0
11
89.473516284709405
21
2.9999999999999982
31
0
0
LINE
5
119
100
AcDbEntity
8
0
100
AcDbLine
10
89.473516284709405
20
2.9999999999999982
30
0
11
89.473516284709405
21
0
31
0
0
LINE
5
120
100
AcDbEntity
8
0
100
AcDbLine
10
39.473516284709405
20
2.9999999999999982
30
0
11
29.473516284709405
21
2.9999999999999982
31
0
0
LINE
5
121
100
AcDbEntity
8
0
100
AcDbLine
10
39.473516284709405
20
0
30
0
11
39.473516284709405
21
2.9999999999999982
31
0
0
LINE
5
122
100
AcDbEntity
8
0
100
AcDbLine
10
49.473516284709405
20
0
30
0
11
39.473516284709405
21
0
31
0
0
LINE
5
123
100
AcDbEntity
8
0
100
AcDbLine
10
49.473516284709405
20
2.9999999999999982
30
0
11
49.473516284709405
21
0
31
0
0
LINE
5
124
100
AcDbEntity
8
0
100
AcDbLine
10
59.473516284709405
20
2.9999999999999982
30
0
11
49.473516284709405
21
2.9999999999999982
31
0
0
LINE
5
125
100
AcDbEntity
8
0
100
AcDbLine
10
59.473516284709405
20
0
30
0
11
59.473516284709405
21
2.9999999999999982
31
0
0
LINE
5
126
100
AcDbEntity
8
0
100
AcDbLine
10
69.473516284709405
20
0
30
0
11
59.473516284709405
21
0
31
0
0
LINE
5
127
100
AcDbEntity
8
0
100
AcDbLine
10
69.473516284709405
20
2.9999999999999982
30
0
11
69.473516284709405
21
0
31
0
0
LINE
5
128
100
AcDbEntity
8
0
100
AcDbLine
10
79.473516284709405
20
2.9999999999999982
30
0
11
69.473516284709405
21
2.9999999999999982
31
0
0
LINE
5
129
100
AcDbEntity
8
0
100
AcDbLine
10
79.473516284709405
20
0
30
0
11
79.473516284709405
21
2.9999999999999982
31
0
0
LINE
5
130
100
AcDbEntity
8
0
100
AcDbLine
10
89.473516284709405
20
0
30
0
11
79.473516284709405
21
0
31
0
0
LINE
5
131
100
AcDbEntity
8
0
100
AcDbLine
10
149.4735162847094
20
0
30
0
11
139.4735162847094
21
0
31
0
0
LINE
5
132
100
AcDbEntity
8
0
100
AcDbLine
10
139.4735162847094
20
0
30
0
11
139.4735162847094
21
2.9999999999999982
31
0
0
LINE
5
133
100
AcDbEntity
8
0
100
AcDbLine
10
139.4735162847094
20
2.9999999999999982
30
0
11
129.4735162847094
21
2.9999999999999982
31
0
0
LINE
5
134
100
AcDbEntity
8
0
100
AcDbLine
10
129.4735162847094
20
2.9999999999999982
30
0
11
129.4735162847094
21
0
31
0
0
LINE
5
135
100
AcDbEntity
8
0
100
AcDbLine
10
149.4735162847094
20
0
30
0
11
139.4735162847094
21
0
31
0
0
LINE
5
136
100
AcDbEntity
8
0
100
AcDbLine
10
139.4735162847094
20
0
30
0
11
139.4735162847094
21
2.9999999999999982
31
0
0
LINE
5
137
100
AcDbEntity
8
0
100
AcDbLine
10
139.4735162847094
20
2.9999999999999982
30
0
11
129.4735162847094
21
2.9999999999999982
31
0
0
LINE
5
138
100
AcDbEntity
8
0
100
AcDbLine
10
129.4735162847094
20
2.9999999999999982
30
0
11
129.4735162847094
21
0
31
0
0
LINE
5
139
100
AcDbEntity
8
0
100
AcDbLine
10
29.473516284709405
20
0
30
0
11
19.473516284709405
21
0
31
0
0
LINE
5
140
100
AcDbEntity
8
0
100
AcDbLine
10
19.473516284709405
20
0
30
0
11
19.473516284709405
21
2.9999999999999982
31
0
0
LINE
5
141
100
AcDbEntity
8
0
100
AcDbLine
10
19.473516284709405
20
2.9999999999999982
30
0
11
9.4735162847094045
21
2.9999999999999982
31
0
0
LINE
5
142
100
AcDbEntity
8
0
100
AcDbLine
10
9.4735162847094045
20
2.9999999999999982
30
0
11
9.4735162847094045
21
0
31
0
0
LINE
5
143
100
AcDbEntity
8
0
100
AcDbLine
10
9.4735162847094045
20
0
30
0
11
-0.52648371529059546
21
0
31
0
0
LINE
5
144
100
AcDbEntity
8
0
100
AcDbLine
10
-0.52648371529059546
20
0
30
0
11
-0.52648371529059546
21
2.9999999999999982
31
0
0
LINE
5
145
100
AcDbEntity
8
0
100
AcDbLine
10
-0.52648371529059546
20
2.9999999999999982
30
0
11
-10.526483715290595
21
2.9999999999999982
31
0
0
ENDSEC
0
SECTION
2
OBJECTS
0
DICTIONARY
5
C
100
AcDbDictionary
3
ACAD_GROUP
350
D
3
ACAD_MLINESTYLE
350
17
0
DICTIONARY
5
D
100
AcDbDictionary
0
DICTIONARY
5
1A
330
C
100
AcDbDictionary
0
DICTIONARY
5
17
100
AcDbDictionary
0
ENDSEC
0
EOF
